<svg xmlns="http://www.w3.org/2000/svg" version="1.1" xmlns:xlink="http://www.w3.org/1999/xlink" xmlns:svgjs="http://svgjs.dev/svgjs" width="1440" height="560" preserveAspectRatio="none" viewBox="0 0 1440 560"><g mask="url(&quot;#SvgjsMask1000&quot;)" fill="none"><rect width="1440" height="560" x="0" y="0" fill="#0e2a47"></rect><path d="M865.21 192.09L870.53 180.45 883.07 183.09 888.39 171.44 900.92 174.09 906.25 162.44 918.78 165.08M868.81 199.23L874.14 187.59 886.67 190.23 892 178.59 904.53 181.23 909.85 169.59 922.39 172.23" stroke="#e73635" stroke-width="1" stroke-dasharray="4, 4"></path><path d="M1074.81 555.1099999999999 L1121.54 620.65L1042.6279979088827 643.4270020911172z" stroke="#037b0b" stroke-width="1" stroke-dasharray="3, 2"></path><path d="M683.29 172.95L671.27 177.36 664.33 166.61 652.31 171.02 645.36 160.27 633.34 164.69 626.39 153.93M685.83 165.36L673.81 169.78 666.86 159.02 654.84 163.44 647.89 152.68 635.87 157.1 628.92 146.34M688.37 157.77L676.35 162.19 669.4 151.43 657.38 155.85 650.43 145.09 638.41 149.51 631.46 138.75" stroke="#037b0b" stroke-width="2.86"></path><rect width="237.24" height="237.24" clip-path="url(&quot;#SvgjsClipPath1001&quot;)" x="1122.55" y="91.2" fill="url(&quot;#SvgjsPattern1002&quot;)" transform="rotate(314.6, 1241.17, 209.82)"></rect><rect width="264" height="264" clip-path="url(&quot;#SvgjsClipPath1003&quot;)" x="594.59" y="211.7" fill="url(&quot;#SvgjsPattern1004&quot;)" transform="rotate(78.87, 726.59, 343.7)"></rect><path d="M651.88 558.91 L699.99 500.24L630.8388328962437 484.47883289624383z" stroke="#e73635" stroke-width="2.16" stroke-dasharray="4, 4"></path><circle r="46.666666666666664" cx="1298.48" cy="511.91" fill="#d3b714"></circle><path d="M1133.06 158.07L1121.11 153.47 1122.98 140.8 1111.04 136.19 1112.91 123.52 1100.96 118.92 1102.83 106.25M1139.97 154.04L1128.02 149.43 1129.89 136.76 1117.95 132.16 1119.82 119.49 1107.87 114.88 1109.74 102.22M1146.88 150.01L1134.93 145.4 1136.8 132.73 1124.86 128.13 1126.73 115.46 1114.78 110.85 1116.65 98.18" stroke="#e73635" stroke-width="1.19" stroke-dasharray="3, 3"></path><rect width="98.4" height="98.4" clip-path="url(&quot;#SvgjsClipPath1005&quot;)" x="928.4" y="235.3" fill="url(&quot;#SvgjsPattern1006&quot;)" transform="rotate(46.09, 977.6, 284.5)"></rect><rect width="264" height="264" clip-path="url(&quot;#SvgjsClipPath1007&quot;)" x="1247.24" y="-28.07" fill="url(&quot;#SvgjsPattern1008&quot;)" transform="rotate(89.37, 1379.24, 103.93)"></rect><path d="M0 0 " stroke="#037b0b" stroke-width="1" stroke-dasharray="2, 2"></path><path d="M1458.03 287.01 L1320.6499999999999 333.3L1322.2259373002425 243.04093730024255z" stroke="#d3b714" stroke-width="1.02" stroke-dasharray="3, 3"></path></g><defs><mask id="SvgjsMask1000"><rect width="1440" height="560" fill="#ffffff"></rect></mask><pattern x="0" y="0" width="237.24" height="13.18" patternUnits="userSpaceOnUse" id="SvgjsPattern1002"><rect width="237.24" height="6.59" x="0" y="0" fill="#e73635"></rect><rect width="237.24" height="6.59" x="0" y="6.59" fill="rgba(0, 0, 0, 0)"></rect></pattern><clipPath id="SvgjsClipPath1001"><circle r="59.31" cx="1241.17" cy="209.82"></circle></clipPath><pattern x="0" y="0" width="264" height="6" patternUnits="userSpaceOnUse" id="SvgjsPattern1004"><rect width="264" height="3" x="0" y="0" fill="#037b0b"></rect><rect width="264" height="3" x="0" y="3" fill="rgba(0, 0, 0, 0)"></rect></pattern><clipPath id="SvgjsClipPath1003"><circle r="66" cx="726.59" cy="343.7"></circle></clipPath><pattern x="0" y="0" width="98.4" height="9.84" patternUnits="userSpaceOnUse" id="SvgjsPattern1006"><rect width="98.4" height="4.92" x="0" y="0" fill="#037b0b"></rect><rect width="98.4" height="4.92" x="0" y="4.92" fill="rgba(0, 0, 0, 0)"></rect></pattern><clipPath id="SvgjsClipPath1005"><circle r="24.6" cx="977.6" cy="284.5"></circle></clipPath><pattern x="0" y="0" width="264" height="6" patternUnits="userSpaceOnUse" id="SvgjsPattern1008"><rect width="264" height="3" x="0" y="0" fill="#037b0b"></rect><rect width="264" height="3" x="0" y="3" fill="rgba(0, 0, 0, 0)"></rect></pattern><clipPath id="SvgjsClipPath1007"><circle r="66" cx="1379.24" cy="103.93"></circle></clipPath></defs></svg>